<svg xmlns="http://www.w3.org/2000/svg" xmlns:xlink="http://www.w3.org/1999/xlink" version="1.1" id="Capa_1" x="0px" y="0px" width="90px" height="90px" viewBox="0 0 90 90" enable-background="new 0 0 90 90" xml:space="preserve">
<g>
	<g>
		<path d="M34.925,17.626l0,0.002c0.027-0.01,0.053-0.017,0.079-0.026c-0.07,0.026-0.14,0.044-0.209,0.07    c-0.044,0.016-0.085,0.036-0.128,0.052l0-0.002c-22.702,8.53-36.54,27.615-30.915,42.679c5.624,15.063,28.583,20.41,51.321,11.973    l-0.001-0.003c-0.025,0.01-0.053,0.017-0.078,0.027c0.069-0.027,0.14-0.046,0.209-0.071c0.044-0.018,0.085-0.036,0.127-0.052    l0.001,0.002c22.703-8.53,36.54-27.615,30.915-42.679S57.663,9.188,34.925,17.626z M4.784,60.017    C-0.654,45.456,12.68,26.921,34.541,18.55l0.383-0.143c0.045-0.017,0.087-0.034,0.142-0.058    c10.798-4.025,21.754-1.483,24.426,5.67c2.672,7.157-3.942,16.263-14.739,20.292c-0.043,0.015-0.086,0.03-0.126,0.045l-1.043,0.39    l0.009,0.028c-11.24,4.656-17.996,14.342-15.146,21.975c1.781,4.77,6.921,7.687,13.344,8.265    C24.484,77.458,9.17,71.765,4.784,60.017z M52.653,65.496c-5.696,2.125-11.455,0.792-12.863-2.982    c-1.41-3.773,2.065-8.555,7.76-10.683c5.695-2.125,11.454-0.792,12.862,2.982C61.823,58.587,58.348,63.369,52.653,65.496z     M58.118,35.509c0.012-0.017,0.02-0.032,0.03-0.049C58.138,35.477,58.13,35.492,58.118,35.509z"/>
	</g>
	<ellipse transform="matrix(-0.9368 0.3498 -0.3498 -0.9368 88.2347 46.7343)" cx="39.897" cy="31.336" rx="12.108" ry="8.022"/>
</g>
</svg>