<svg xmlns="http://www.w3.org/2000/svg" xmlns:xlink="http://www.w3.org/1999/xlink" version="1.1" id="Layer_1" x="0px" y="0px" width="100px" height="100px" viewBox="0 0 100 100" enable-background="new 0 0 100 100" xml:space="preserve">
<path d="M91.559,22.217l7.112-7.112L84.896,1.325l-7.098,7.098C69.643,2.943,60.048,0,50.001,0C36.644,0,24.09,5.203,14.643,14.645  C-2.491,31.784-4.549,58.361,8.439,77.783l-7.112,7.112l13.775,13.779l7.102-7.104C30.359,97.052,39.951,100,50.001,100  c13.353,0,25.912-5.203,35.349-14.646C102.489,68.22,104.553,41.644,91.559,22.217z M28.417,28.425  c5.762-5.767,13.429-8.946,21.584-8.946c4.786,0,9.39,1.125,13.549,3.192L22.679,63.544C17.031,52.135,18.931,37.91,28.417,28.425z   M71.581,71.585c-5.767,5.757-13.429,8.936-21.58,8.936c-4.786,0-9.39-1.125-13.554-3.191L77.32,36.456  C82.963,47.866,81.062,62.094,71.581,71.585z"/>
</svg>