<svg xmlns="http://www.w3.org/2000/svg" xmlns:xlink="http://www.w3.org/1999/xlink" version="1.1" x="0px" y="0px" width="100px" height="100px" viewBox="0 0 100 100" enable-background="new 0 0 100 100" xml:space="preserve">
<g id="Captions">
</g>
<g id="Your_Icon">
	<g>
		<path d="M19.2,66.968c-1.284,0-2.473-0.831-2.868-2.123c-0.484-1.585,0.407-3.262,1.991-3.747    c13.406-4.099,26.981-5.354,41.342-3.807L47.546,26.348c-2.959-7.553-26.815-3.416-34.655-2.059    c-0.69,0.12-1.322,0.229-1.885,0.324c-1.627,0.268-3.182-0.828-3.456-2.462s0.828-3.182,2.462-3.456l1.854-0.318    c11.854-2.055,36.522-6.332,41.267,5.783l13.969,35.664c0.391,0.998,0.219,2.129-0.45,2.966c-0.668,0.837-1.725,1.263-2.793,1.094    c-15.359-2.326-29.679-1.361-43.779,2.952C19.786,66.925,19.491,66.968,19.2,66.968z"/>
	</g>
	<g>
		<path d="M48.896,77.727c-1.089,0-2.117-0.595-2.647-1.59c-0.649-1.219-0.383-2.723,0.646-3.645l15.412-13.809    c1.232-1.105,3.13-1.001,4.236,0.232c1.105,1.234,1.002,3.131-0.232,4.236l-7.284,6.526c5.089-0.718,10.207-1.041,15.318-0.981    c4.983,0.062,10.107,0.503,15.29,1.312L79.016,38.515c-0.858-2.542-5.407-6.526-26.201-4.646c-1.64,0.145-3.109-1.067-3.259-2.718    c-0.148-1.65,1.068-3.109,2.718-3.259c12.285-1.106,29.013-1.417,32.428,8.705l12.237,36.296c0.343,1.015,0.117,2.136-0.591,2.94    c-0.709,0.803-1.791,1.168-2.843,0.959c-6.537-1.312-13.01-2.018-19.237-2.096c-8.369-0.114-16.419,0.854-24.634,2.938    C49.388,77.696,49.14,77.727,48.896,77.727z"/>
	</g>
	<g>
		<path d="M48.896,77.728c-1.169,0-2.279-0.688-2.764-1.832L39.815,60.97c-0.646-1.525,0.067-3.286,1.594-3.932    c1.52-0.643,3.285,0.066,3.932,1.594l6.317,14.926c0.646,1.525-0.067,3.286-1.594,3.932C49.684,77.65,49.287,77.728,48.896,77.728    z"/>
	</g>
	<g>
		<path d="M24.915,90.712c-1.342,0-2.564-0.907-2.907-2.268L2.995,13.022C2.59,11.416,3.564,9.785,5.171,9.38    c1.609-0.403,3.238,0.569,3.643,2.176l19.013,75.422c0.405,1.606-0.569,3.237-2.176,3.643    C25.404,90.682,25.157,90.712,24.915,90.712z"/>
	</g>
</g>
</svg>